<svg width="266" height="59" viewBox="0 0 266 59" fill="none" xmlns="http://www.w3.org/2000/svg">
<path d="M53.04 49C53.52 48.72 53.92 48.42 54.24 48.1C54.6 47.78 54.88 47.4 55.08 46.96C55.28 46.52 55.42 46 55.5 45.4C55.58 44.8 55.62 44.06 55.62 43.18V28.36C55.62 25.48 55.14 23.32 54.18 21.88C53.22 20.44 51.88 19.72 50.16 19.72C49.2 19.72 48.42 19.94 47.82 20.38C47.26 20.82 46.8 21.46 46.44 22.3C46.12 23.14 45.9 24.16 45.78 25.36C45.66 26.56 45.6 27.92 45.6 29.44V43.18C45.6 44.06 45.64 44.8 45.72 45.4C45.8 46 45.94 46.52 46.14 46.96C46.34 47.4 46.6 47.78 46.92 48.1C47.28 48.42 47.7 48.72 48.18 49H34.02C34.5 48.72 34.9 48.42 35.22 48.1C35.58 47.78 35.86 47.4 36.06 46.96C36.26 46.52 36.4 46 36.48 45.4C36.56 44.8 36.6 44.06 36.6 43.18V23.86C36.6 22.98 36.56 22.24 36.48 21.64C36.4 21 36.26 20.46 36.06 20.02C35.86 19.58 35.58 19.22 35.22 18.94C34.9 18.62 34.5 18.3 34.02 17.98H45.6V22.36C46.16 20.72 47.08 19.48 48.36 18.64C49.64 17.8 51.4 17.38 53.64 17.38C56.96 17.38 59.62 18.34 61.62 20.26C63.62 22.14 64.62 24.84 64.62 28.36V43.18C64.62 44.06 64.66 44.8 64.74 45.4C64.82 46 64.96 46.52 65.16 46.96C65.36 47.4 65.62 47.78 65.94 48.1C66.3 48.42 66.72 48.72 67.2 49H53.04Z" fill="#5046E4"/>
<path d="M78.1542 49.66C72.6742 49.66 69.9342 46.44 69.9342 40V23.92C69.9342 23.04 69.8942 22.3 69.8142 21.7C69.7342 21.06 69.5942 20.52 69.3942 20.08C69.1942 19.64 68.9142 19.28 68.5542 19C68.2342 18.68 67.8342 18.38 67.3542 18.1L78.9342 12.82V17.98H83.0742V20.32H78.9342V42.52C78.9342 45.72 79.5142 47.32 80.6742 47.32C81.1942 47.32 81.6542 47 82.0542 46.36C82.4542 45.72 82.5742 44.76 82.4142 43.48L83.9142 44.32C83.7542 45.52 83.4542 46.48 83.0142 47.2C82.6142 47.92 82.1342 48.46 81.5742 48.82C81.0142 49.18 80.4342 49.4 79.8342 49.48C79.2342 49.6 78.6742 49.66 78.1542 49.66Z" fill="#5046E4"/>
<path d="M107.3 28.36C107.62 27.16 107.72 26.04 107.6 25C107.52 23.92 107.26 23 106.82 22.24C106.42 21.44 105.86 20.82 105.14 20.38C104.42 19.94 103.62 19.72 102.74 19.72C101.02 19.72 99.6797 20.58 98.7197 22.3C97.7597 23.98 97.2797 26.36 97.2797 29.44V43.18C97.2797 44.06 97.3197 44.8 97.3997 45.4C97.4797 46 97.6197 46.52 97.8197 46.96C98.0197 47.4 98.2797 47.78 98.5997 48.1C98.9597 48.42 99.3797 48.72 99.8597 49H85.6997C86.1797 48.72 86.5797 48.42 86.8997 48.1C87.2597 47.78 87.5397 47.4 87.7397 46.96C87.9397 46.52 88.0797 46 88.1597 45.4C88.2397 44.8 88.2797 44.06 88.2797 43.18V23.86C88.2797 22.98 88.2397 22.24 88.1597 21.64C88.0797 21 87.9397 20.46 87.7397 20.02C87.5397 19.58 87.2597 19.22 86.8997 18.94C86.5797 18.62 86.1797 18.3 85.6997 17.98H97.2797V23.08C98.6797 19.28 101.52 17.38 105.8 17.38C107.24 17.38 108.58 17.6 109.82 18.04C111.06 18.48 112.14 19.14 113.06 20.02L107.3 28.36Z" fill="#2F2A84"/>
<path d="M124.781 19.72C123.581 19.72 122.581 20.06 121.781 20.74C121.021 21.38 120.441 22.26 120.041 23.38C119.681 24.46 119.521 25.7 119.561 27.1C119.601 28.5 119.821 29.94 120.221 31.42H131.921C132.161 29.98 132.141 28.58 131.861 27.22C131.621 25.82 131.161 24.56 130.481 23.44C129.841 22.32 129.021 21.42 128.021 20.74C127.061 20.06 125.981 19.72 124.781 19.72ZM142.181 36.34C142.141 38.34 141.761 40.16 141.041 41.8C140.321 43.44 139.321 44.84 138.041 46C136.801 47.16 135.301 48.06 133.541 48.7C131.821 49.34 129.941 49.66 127.901 49.66C125.341 49.66 123.121 49.2 121.241 48.28C119.361 47.36 117.781 46.14 116.501 44.62C115.261 43.1 114.321 41.38 113.681 39.46C113.041 37.5 112.721 35.52 112.721 33.52C112.721 31.52 113.021 29.56 113.621 27.64C114.261 25.68 115.181 23.94 116.381 22.42C117.621 20.9 119.161 19.68 121.001 18.76C122.841 17.84 124.981 17.38 127.421 17.38C129.861 17.38 131.981 17.86 133.781 18.82C135.581 19.74 137.021 20.98 138.101 22.54C139.221 24.06 139.961 25.8 140.321 27.76C140.721 29.72 140.721 31.72 140.321 33.76H121.061C121.581 35.08 122.261 36.36 123.101 37.6C123.941 38.8 124.901 39.86 125.981 40.78C127.061 41.7 128.281 42.44 129.641 43C131.001 43.56 132.501 43.84 134.141 43.84C135.941 43.84 137.521 43.26 138.881 42.1C140.241 40.9 141.021 38.98 141.221 36.34H142.181Z" fill="#2F2A84"/>
<path d="M151.918 49L144.598 23.86C144.358 22.98 144.098 22.24 143.818 21.64C143.578 21 143.298 20.46 142.978 20.02C142.658 19.58 142.278 19.22 141.838 18.94C141.438 18.62 140.938 18.3 140.338 17.98H152.338L160.498 45.76L166.858 23.86C167.378 22.1 167.578 20.84 167.458 20.08C167.338 19.28 166.858 18.58 166.018 17.98H170.998L161.998 49H151.918Z" fill="#2F2A84"/>
<path d="M172.418 49C172.898 48.72 173.298 48.42 173.618 48.1C173.978 47.78 174.258 47.4 174.458 46.96C174.658 46.52 174.798 46 174.878 45.4C174.958 44.8 174.998 44.06 174.998 43.18V23.86C174.998 22.98 174.958 22.24 174.878 21.64C174.798 21 174.658 20.46 174.458 20.02C174.258 19.58 173.978 19.22 173.618 18.94C173.298 18.62 172.898 18.3 172.418 17.98H183.998V43.18C183.998 44.06 184.038 44.8 184.118 45.4C184.198 46 184.338 46.52 184.538 46.96C184.738 47.4 184.998 47.78 185.318 48.1C185.678 48.42 186.098 48.72 186.578 49H172.418ZM179.558 16.6L173.438 10.54L179.558 4.42L185.618 10.54L179.558 16.6Z" fill="#2F2A84"/>
<path d="M200.895 19.72C199.695 19.72 198.695 20.06 197.895 20.74C197.135 21.38 196.555 22.26 196.155 23.38C195.795 24.46 195.635 25.7 195.675 27.1C195.715 28.5 195.935 29.94 196.335 31.42H208.035C208.275 29.98 208.255 28.58 207.975 27.22C207.735 25.82 207.275 24.56 206.595 23.44C205.955 22.32 205.135 21.42 204.135 20.74C203.175 20.06 202.095 19.72 200.895 19.72ZM218.295 36.34C218.255 38.34 217.875 40.16 217.155 41.8C216.435 43.44 215.435 44.84 214.155 46C212.915 47.16 211.415 48.06 209.655 48.7C207.935 49.34 206.055 49.66 204.015 49.66C201.455 49.66 199.235 49.2 197.355 48.28C195.475 47.36 193.895 46.14 192.615 44.62C191.375 43.1 190.435 41.38 189.795 39.46C189.155 37.5 188.835 35.52 188.835 33.52C188.835 31.52 189.135 29.56 189.735 27.64C190.375 25.68 191.295 23.94 192.495 22.42C193.735 20.9 195.275 19.68 197.115 18.76C198.955 17.84 201.095 17.38 203.535 17.38C205.975 17.38 208.095 17.86 209.895 18.82C211.695 19.74 213.135 20.98 214.215 22.54C215.335 24.06 216.075 25.8 216.435 27.76C216.835 29.72 216.835 31.72 216.435 33.76H197.175C197.695 35.08 198.375 36.36 199.215 37.6C200.055 38.8 201.015 39.86 202.095 40.78C203.175 41.7 204.395 42.44 205.755 43C207.115 43.56 208.615 43.84 210.255 43.84C212.055 43.84 213.635 43.26 214.995 42.1C216.355 40.9 217.135 38.98 217.335 36.34H218.295Z" fill="#2F2A84"/>
<path d="M228.031 49L220.711 23.86C220.471 22.98 220.211 22.24 219.931 21.64C219.691 21 219.411 20.46 219.091 20.02C218.771 19.58 218.391 19.22 217.951 18.94C217.551 18.62 217.051 18.3 216.451 17.98H228.451L236.611 45.76L241.171 30.1L239.371 23.86C239.091 22.98 238.811 22.24 238.531 21.64C238.291 21 237.991 20.46 237.631 20.02C237.311 19.58 236.931 19.22 236.491 18.94C236.091 18.62 235.591 18.3 234.991 17.98H247.051L255.211 45.76L261.571 23.86C262.091 22.1 262.291 20.84 262.171 20.08C262.051 19.28 261.551 18.58 260.671 17.98H265.711L256.711 49H246.631L242.431 34.3L238.111 49H228.031Z" fill="#2F2A84"/>
<path d="M7.83801 53.29C9.25801 53.29 10.323 52.864 11.033 52.012C11.743 51.1127 12.098 49.4087 12.098 46.9V11.4C12.098 8.89133 11.743 7.211 11.033 6.359C10.323 5.45966 9.25801 5.01 7.83801 5.01V4.3H23.6V5.01C22.18 5.01 21.115 5.45966 20.405 6.359C19.695 7.211 19.34 8.89133 19.34 11.4V46.9C19.34 49.4087 19.695 51.1127 20.405 52.012C21.115 52.864 22.18 53.29 23.6 53.29V54H7.83801V53.29Z" fill="#2F2A84"/>
<path d="M15.0093 28.5938C13.1825 28.7457 11.3818 29.5036 9.68919 30.8363C7.7849 32.3356 6.05463 34.5332 4.59715 37.3036C3.13967 40.074 1.98354 43.363 1.19476 46.9827C0.40598 50.6024 0 54.482 0 58.4H31.3913C31.3913 54.482 30.9853 50.6024 30.1965 46.9827C29.4078 43.363 28.2516 40.074 26.7942 37.3036C25.3367 34.5332 23.6064 32.3356 21.7021 30.8363C20.0095 29.5036 18.2088 28.7457 16.382 28.5938L29.2885 53.0043H2.10283L15.0093 28.5938Z" fill="#5046E4"/>
<path d="M30.1965 11.4173C30.9853 7.79756 31.3913 3.91796 31.3913 2.60824e-06L0 0C0 3.91796 0.40598 7.79756 1.19476 11.4173C1.98354 15.037 3.13967 18.326 4.59715 21.0964C6.05463 23.8668 7.7849 26.0644 9.68919 27.5637C11.3818 28.8964 13.1825 29.6543 15.0093 29.8062L2.10281 5.39566H29.2885L16.382 29.8062C18.2088 29.6543 20.0095 28.8964 21.7021 27.5637C23.6064 26.0644 25.3367 23.8668 26.7942 21.0964C28.2516 18.326 29.4078 15.037 30.1965 11.4173Z" fill="#5046E4"/>
</svg>
