<svg width="32" height="59" viewBox="0 0 32 59" fill="none" xmlns="http://www.w3.org/2000/svg">
<path d="M7.83801 53.29C9.25801 53.29 10.323 52.864 11.033 52.012C11.743 51.1127 12.098 49.4087 12.098 46.9V11.4C12.098 8.89133 11.743 7.211 11.033 6.359C10.323 5.45966 9.25801 5.01 7.83801 5.01V4.3H23.6V5.01C22.18 5.01 21.115 5.45966 20.405 6.359C19.695 7.211 19.34 8.89133 19.34 11.4V46.9C19.34 49.4087 19.695 51.1127 20.405 52.012C21.115 52.864 22.18 53.29 23.6 53.29V54H7.83801V53.29Z" fill="#2F2A84"/>
<path d="M15.0093 28.5938C13.1825 28.7457 11.3818 29.5036 9.68919 30.8363C7.7849 32.3356 6.05463 34.5332 4.59715 37.3036C3.13967 40.074 1.98354 43.363 1.19476 46.9827C0.40598 50.6024 0 54.482 0 58.4H31.3913C31.3913 54.482 30.9853 50.6024 30.1965 46.9827C29.4078 43.363 28.2516 40.074 26.7942 37.3036C25.3367 34.5332 23.6064 32.3356 21.7021 30.8363C20.0095 29.5036 18.2088 28.7457 16.382 28.5938L29.2885 53.0043H2.10283L15.0093 28.5938Z" fill="#5046E4"/>
<path d="M30.1965 11.4173C30.9853 7.79756 31.3913 3.91796 31.3913 2.60824e-06L0 0C0 3.91796 0.40598 7.79756 1.19476 11.4173C1.98354 15.037 3.13967 18.326 4.59715 21.0964C6.05463 23.8668 7.7849 26.0644 9.68919 27.5637C11.3818 28.8964 13.1825 29.6543 15.0093 29.8062L2.10281 5.39566H29.2885L16.382 29.8062C18.2088 29.6543 20.0095 28.8964 21.7021 27.5637C23.6064 26.0644 25.3367 23.8668 26.7942 21.0964C28.2516 18.326 29.4078 15.037 30.1965 11.4173Z" fill="#5046E4"/>
</svg>
