<svg width="240" height="59" viewBox="0 0 240 59" fill="none" xmlns="http://www.w3.org/2000/svg">
<path d="M46.3 47.4C47.5 47.4 48.4 47.04 49 46.32C49.6 45.56 49.9 44.12 49.9 42V26.52C49.9 24.8 49.7 23.46 49.3 22.5C48.94 21.5 48.48 20.76 47.92 20.28C47.4 19.8 46.84 19.52 46.24 19.44C45.64 19.32 45.12 19.26 44.68 19.26C43.48 19.26 42.38 19.54 41.38 20.1C40.38 20.62 39.46 21.4 38.62 22.44V42C38.62 44.12 38.92 45.56 39.52 46.32C40.12 47.04 41.02 47.4 42.22 47.4V48H29.02V47.4C30.22 47.4 31.12 47.04 31.72 46.32C32.32 45.56 32.62 44.12 32.62 42V26.4C32.62 24.28 32.32 22.86 31.72 22.14C31.12 21.38 30.22 21 29.02 21V20.4L38.02 17.4H38.62V21.48C39.74 20.08 41.02 19.06 42.46 18.42C43.94 17.74 45.4 17.4 46.84 17.4C49.56 17.4 51.74 18.2 53.38 19.8C55.06 21.4 55.9 24.04 55.9 27.72V42C55.9 44.12 56.2 45.56 56.8 46.32C57.4 47.04 58.3 47.4 59.5 47.4V48H46.3V47.4Z" fill="#5046E4"/>
<path d="M63.1877 18.6H59.5877V18C60.4677 18 61.4277 17.7 62.4677 17.1C63.5477 16.46 64.5277 15.68 65.4077 14.76C66.3277 13.8 67.0877 12.76 67.6877 11.64C68.2877 10.52 68.5877 9.44 68.5877 8.4H69.1877V18H75.1877V18.6H69.1877V36.6C69.1877 38.56 69.2877 40.18 69.4877 41.46C69.7277 42.7 70.0477 43.66 70.4477 44.34C70.8877 45.02 71.4077 45.5 72.0077 45.78C72.6077 46.02 73.3077 46.14 74.1077 46.14C74.7477 46.14 75.3477 45.98 75.9077 45.66C76.5077 45.3 77.0477 44.88 77.5277 44.4C78.0077 43.88 78.4277 43.3 78.7877 42.66C79.1477 42.02 79.4077 41.4 79.5677 40.8H80.2277C79.9877 41.8 79.6677 42.78 79.2677 43.74C78.9077 44.66 78.3877 45.48 77.7077 46.2C77.0677 46.92 76.2677 47.5 75.3077 47.94C74.3477 48.34 73.1677 48.54 71.7677 48.54C68.7677 48.54 66.5877 47.68 65.2277 45.96C63.8677 44.2 63.1877 41.88 63.1877 39V18.6Z" fill="#5046E4"/>
<path d="M95.747 17.4C97.027 17.4 98.227 17.7 99.347 18.3C100.467 18.86 101.547 19.52 102.587 20.28L102.707 29.58H102.047C101.087 27.58 100.267 25.86 99.587 24.42C98.907 22.98 98.307 21.8 97.787 20.88C97.267 19.96 96.807 19.28 96.407 18.84C96.007 18.4 95.607 18.18 95.207 18.18C94.367 18.18 93.587 18.66 92.867 19.62C92.187 20.58 91.507 21.9 90.827 23.58V42C90.827 44.12 91.127 45.56 91.727 46.32C92.327 47.04 93.227 47.4 94.427 47.4V48H81.227V47.4C82.427 47.4 83.327 47.04 83.927 46.32C84.527 45.56 84.827 44.12 84.827 42V26.4C84.827 24.28 84.527 22.86 83.927 22.14C83.327 21.38 82.427 21 81.227 21V20.4L90.227 17.4H90.827V22.08C92.187 18.96 93.827 17.4 95.747 17.4Z" fill="#2F2A84"/>
<path d="M110.387 33V33.24L110.447 33.78V34.02C110.607 35.86 110.927 37.54 111.407 39.06C111.887 40.54 112.487 41.8 113.207 42.84C113.927 43.88 114.747 44.7 115.667 45.3C116.627 45.86 117.627 46.14 118.667 46.14C119.947 46.14 121.067 45.86 122.027 45.3C123.027 44.7 123.867 44 124.547 43.2C125.227 42.36 125.767 41.5 126.167 40.62C126.567 39.74 126.827 39 126.947 38.4H127.667C127.467 39.28 127.187 40.32 126.827 41.52C126.467 42.68 125.887 43.8 125.087 44.88C124.327 45.92 123.267 46.8 121.907 47.52C120.587 48.24 118.847 48.6 116.687 48.6C114.887 48.6 113.207 48.24 111.647 47.52C110.127 46.76 108.807 45.7 107.687 44.34C106.607 42.94 105.747 41.28 105.107 39.36C104.507 37.44 104.207 35.32 104.207 33C104.207 30.64 104.467 28.52 104.987 26.64C105.547 24.72 106.327 23.08 107.327 21.72C108.367 20.32 109.607 19.26 111.047 18.54C112.527 17.78 114.207 17.4 116.087 17.4C118.007 17.4 119.627 17.78 120.947 18.54C122.307 19.26 123.407 20.32 124.247 21.72C125.127 23.08 125.767 24.72 126.167 26.64C126.567 28.52 126.767 30.64 126.767 33H110.387ZM120.647 32.4C120.607 31 120.507 29.4 120.347 27.6C120.187 25.76 119.887 24.08 119.447 22.56C119.047 21.04 118.427 19.84 117.587 18.96C116.787 18.04 115.687 17.78 114.287 18.18C112.687 18.62 111.567 20.1 110.927 22.62C110.287 25.1 110.087 28.36 110.327 32.4H120.647Z" fill="#2F2A84"/>
<path d="M156.326 18V18.6C155.126 18.6 153.906 19.22 152.666 20.46C151.426 21.7 150.466 23.38 149.786 25.5L142.046 48.6H141.326L131.906 24C131.106 21.88 130.306 20.46 129.506 19.74C128.706 18.98 127.706 18.6 126.506 18.6V18H140.186V18.6C138.986 18.6 138.186 18.98 137.786 19.74C137.426 20.46 137.626 21.88 138.386 24L144.206 39.72L148.886 25.5C149.566 23.34 149.626 21.66 149.066 20.46C148.546 19.22 147.686 18.6 146.486 18.6V18H156.326Z" fill="#2F2A84"/>
<path d="M160.45 9.3C160.45 8.14 160.81 7.2 161.53 6.48C162.25 5.76 163.19 5.4 164.35 5.4C165.51 5.4 166.45 5.76 167.17 6.48C167.89 7.2 168.25 8.14 168.25 9.3C168.25 10.46 167.89 11.4 167.17 12.12C166.45 12.84 165.51 13.2 164.35 13.2C163.19 13.2 162.25 12.84 161.53 12.12C160.81 11.4 160.45 10.46 160.45 9.3ZM157.75 47.4C158.95 47.4 159.85 47.04 160.45 46.32C161.05 45.56 161.35 44.12 161.35 42V26.4C161.35 24.28 161.05 22.86 160.45 22.14C159.85 21.38 158.95 21 157.75 21V20.4L166.75 17.4H167.35V42C167.35 44.12 167.65 45.56 168.25 46.32C168.85 47.04 169.75 47.4 170.95 47.4V48H157.75V47.4Z" fill="#2F2A84"/>
<path d="M179.059 33V33.24L179.119 33.78V34.02C179.279 35.86 179.599 37.54 180.079 39.06C180.559 40.54 181.159 41.8 181.879 42.84C182.599 43.88 183.419 44.7 184.339 45.3C185.299 45.86 186.299 46.14 187.339 46.14C188.619 46.14 189.739 45.86 190.699 45.3C191.699 44.7 192.539 44 193.219 43.2C193.899 42.36 194.439 41.5 194.839 40.62C195.239 39.74 195.499 39 195.619 38.4H196.339C196.139 39.28 195.859 40.32 195.499 41.52C195.139 42.68 194.559 43.8 193.759 44.88C192.999 45.92 191.939 46.8 190.579 47.52C189.259 48.24 187.519 48.6 185.359 48.6C183.559 48.6 181.879 48.24 180.319 47.52C178.799 46.76 177.479 45.7 176.359 44.34C175.279 42.94 174.419 41.28 173.779 39.36C173.179 37.44 172.879 35.32 172.879 33C172.879 30.64 173.139 28.52 173.659 26.64C174.219 24.72 174.999 23.08 175.999 21.72C177.039 20.32 178.279 19.26 179.719 18.54C181.199 17.78 182.879 17.4 184.759 17.4C186.679 17.4 188.299 17.78 189.619 18.54C190.979 19.26 192.079 20.32 192.919 21.72C193.799 23.08 194.439 24.72 194.839 26.64C195.239 28.52 195.439 30.64 195.439 33H179.059ZM189.319 32.4C189.279 31 189.179 29.4 189.019 27.6C188.859 25.76 188.559 24.08 188.119 22.56C187.719 21.04 187.099 19.84 186.259 18.96C185.459 18.04 184.359 17.78 182.959 18.18C181.359 18.62 180.239 20.1 179.599 22.62C178.959 25.1 178.759 28.36 178.999 32.4H189.319Z" fill="#2F2A84"/>
<path d="M239.518 18V18.6C238.918 18.6 238.278 18.76 237.598 19.08C236.918 19.4 236.258 19.86 235.618 20.46C234.978 21.06 234.378 21.78 233.818 22.62C233.298 23.46 232.878 24.42 232.558 25.5L225.838 48.6H225.118L216.778 23.82L209.518 48.6H208.798L200.518 24C199.798 21.88 199.018 20.46 198.178 19.74C197.378 18.98 196.378 18.6 195.178 18.6V18H208.678V18.6C207.478 18.6 206.678 18.96 206.278 19.68C205.878 20.4 206.058 21.84 206.818 24L211.678 37.98L216.358 22.56C215.758 21.04 215.238 20 214.798 19.44C214.358 18.88 213.858 18.6 213.298 18.6V18H224.998V18.6C223.798 18.6 222.998 18.96 222.598 19.68C222.198 20.4 222.378 21.84 223.138 24L227.998 37.98L231.718 25.5C232.358 23.34 232.378 21.66 231.778 20.46C231.218 19.22 230.338 18.6 229.138 18.6V18H239.518Z" fill="#2F2A84"/>
<path d="M4.988 53.29C6.408 53.29 7.473 52.864 8.183 52.012C8.893 51.1127 9.248 49.4087 9.248 46.9V11.4C9.248 8.89133 8.893 7.211 8.183 6.359C7.473 5.45966 6.408 5.01 4.988 5.01V4.3H20.75V5.01C19.33 5.01 18.265 5.45966 17.555 6.359C16.845 7.211 16.49 8.89133 16.49 11.4V46.9C16.49 49.4087 16.845 51.1127 17.555 52.012C18.265 52.864 19.33 53.29 20.75 53.29V54H4.988V53.29Z" fill="#2F2A84"/>
<path d="M12.1405 28.5938C10.6628 28.7457 9.20635 29.5036 7.83724 30.8363C6.29693 32.3356 4.89737 34.5332 3.71847 37.3036C2.53957 40.074 1.60442 43.363 0.966399 46.9827C0.328383 50.6024 0 54.482 0 58.4H25.3913C25.3913 54.482 25.0629 50.6024 24.4249 46.9827C23.7869 43.363 22.8517 40.074 21.6728 37.3036C20.4939 34.5332 19.0944 32.3356 17.5541 30.8363C16.185 29.5036 14.7285 28.7457 13.2508 28.5938L23.6904 53.0043H1.7009L12.1405 28.5938Z" fill="#5046E4"/>
<path d="M24.4249 11.4173C25.0629 7.79756 25.3913 3.91796 25.3913 2.60824e-06L0 0C-1.45753e-07 3.91796 0.328382 7.79756 0.966399 11.4173C1.60441 15.037 2.53957 18.326 3.71847 21.0964C4.89737 23.8668 6.29693 26.0644 7.83724 27.5637C9.20635 28.8964 10.6628 29.6543 12.1405 29.8062L1.70089 5.39566H23.6904L13.2508 29.8062C14.7285 29.6543 16.1849 28.8964 17.5541 27.5637C19.0944 26.0644 20.4939 23.8668 21.6728 21.0964C22.8517 18.326 23.7869 15.037 24.4249 11.4173Z" fill="#5046E4"/>
</svg>
